<svg xmlns="http://www.w3.org/2000/svg" shape-rendering="geometricPrecision" text-rendering="geometricPrecision" image-rendering="optimizeQuality" fill-rule="evenodd" clip-rule="evenodd" viewBox="0 0 314 512.55"><path d="m72.01 239.16-10.18-46.48c44.67-56.59 146.09-52.69 190.34 0l-12.73 46.48c-56.69-14.15-112.43-13.02-167.43 0zm-23.3-126.3c3.69 40.1 1.93 87.92.07 138.39-1.71 46.63-3.51 95.53-1.15 142.47v.2c.02 20.98.26 38.19 5.49 53 5.17 14.61 15.38 27.35 35.38 39.91 20.25 12.71 49.42 18.68 77.89 17.14 26.8-1.45 52.83-9.57 69.95-25 28.71-25.88 28.65-45.54 28.55-78.59v-6.77c4.35-56.54 2.36-109.01.42-160.18-1.51-39.82-2.99-78.89-1.45-118.51 1.99-51.33-22.91-82.89-56.38-97.25-15.92-6.83-33.79-9.83-51.65-9.26-17.9.57-35.78 4.72-51.69 12.17-34.37 16.11-59.52 47.81-55.43 92.28zm-8.26 138.09c.63-17.28 1.26-34.24 1.65-50.67-.19.16-.37.36-.55.57-3 3.67-1.74 8.2-3.24 12.14-.35.92-.8 1.7-1.35 2.33-.91 1.05-2.99 1.8-5.47 2.34-5.81 1.27-24.02 3.39-28.56 1.55-2.67-1.08-3.69-4.2-2.32-8.52 2.06-5.9 5.49-9.24 10.47-12.21 8.44-5.03 18.32-6.53 31.21-6.71.54-28.15.29-54.59-1.88-78.16-4.47-48.54 22.85-83.07 60.2-100.58C117.54 5.1 136.56.68 155.57.07c19.05-.6 38.14 2.61 55.18 9.92 36.46 15.64 63.6 49.82 61.45 105.22-1 25.59-.72 51.01.01 76.57 12.64.21 22.38 1.73 30.71 6.7 4.98 2.97 8.41 6.31 10.47 12.21 1.37 4.32.35 7.44-2.32 8.52-4.54 1.84-22.75-.28-28.56-1.55-2.48-.54-4.56-1.29-5.47-2.34-.55-.63-1-1.41-1.35-2.33-1.5-3.92-.25-8.44-3.21-12.09.35 10.71.76 21.44 1.17 32.24 1.95 51.46 3.96 104.24-.44 161.08l.02 6.16c.11 35.39.17 56.44-31.3 84.81-18.61 16.76-46.53 25.57-75.11 27.12-30.07 1.62-61.06-4.79-82.76-18.42-21.81-13.7-33.03-27.82-38.81-44.18-5.71-16.15-5.98-34.04-5.98-55.79-2.35-47.17-.54-96.21 1.18-142.97zm17 101.69c-5.77-33.58-4.72-85.25 1.96-118.75 12.44 46.89 9.61 73.36-1.96 118.75zm199.1 0c5.77-33.58 4.72-85.25-1.96-118.75-12.44 46.89-9.61 73.36 1.96 118.75zm-73.43-330.6c17.76 6.64 33.15 15.6 45.41 27.42 12.31 11.86 21.48 26.61 26.75 44.78.22.78-.23 1.61-1.02 1.84-.47.13-.95.03-1.31-.24-14.17-10.64-30.17-24.24-43.91-37.97-11.68-11.67-21.77-23.48-27.77-33.71a1.483 1.483 0 0 1 1.85-2.12zM80.73 53.71c12.26-11.82 27.65-20.78 45.41-27.42a1.483 1.483 0 0 1 1.85 2.12c-6 10.23-16.08 22.03-27.76 33.71-13.74 13.73-29.75 27.33-43.92 37.97-.36.27-.84.37-1.31.24a1.493 1.493 0 0 1-1.01-1.84c5.26-18.17 14.43-32.92 26.74-44.78zm-7.62 331.93 8.3-23.77c52.96 8.23 108.05 7.6 151.98-.15l7.5 22.45c-59.25 28.5-105.72 31.61-167.78 1.47z"/></svg>