<?xml version="1.0" encoding="utf-8"?>
<!-- Generator: Adobe Illustrator 27.5.0, SVG Export Plug-In . SVG Version: 6.00 Build 0)  -->
<svg version="1.1"
	 id="Layer_1" shape-rendering="geometricPrecision" image-rendering="optimizeQuality" text-rendering="geometricPrecision"
	 xmlns="http://www.w3.org/2000/svg" xmlns:xlink="http://www.w3.org/1999/xlink" x="0px" y="0px" viewBox="0 0 314 512.5"
	 style="enable-background:new 0 0 314 512.5;" xml:space="preserve">
<style type="text/css">
	.st0{fill-rule:evenodd;clip-rule:evenodd;}
</style>
<path class="st0" d="M72,239.2l-10.2-46.5c44.7-56.6,146.1-52.7,190.3,0l-12.7,46.5C182.8,225,127,226.1,72,239.2z M48.8,112.9
	c-0.1,3.8-0.1,7.6,0,11.4c0.4,19.5,2.8,38.9,2.8,58.4c0,19.8-1.7,39.6-2.5,59.5c-0.1,3-0.2,6.1-0.3,9.1
	c-1.7,46.6-3.5,95.5-1.2,142.5v0.2c0,21,0.3,38.2,5.5,53c5.2,14.6,15.4,27.4,35.4,39.9c20.2,12.7,49.4,18.7,77.9,17.1
	c26.8-1.5,52.8-9.6,69.9-25c28.7-25.9,28.6-45.5,28.5-78.6v-6.8c4.4-56.5,2.4-109,0.4-160.2c-0.7-17.6-2.4-35.1-2.6-52.7
	c-0.2-19,1.5-38,1.5-57c0-27.9-4.1-57.2-21.2-79.2c-10.8-13.9-26.3-23.9-42.9-29.6c-32.2-10.9-70-8.3-100.2,7.5
	C84.8,30.3,71.4,42,62.7,56.7C52.8,73.5,49.4,93.2,48.8,112.9z M40.5,250.9c0.6-17.3,1.3-34.2,1.7-50.7c-0.2,0.2-0.4,0.4-0.5,0.6
	c-3,3.7-1.7,8.2-3.2,12.1c-0.3,0.9-0.8,1.7-1.3,2.3c-0.9,1.1-3,1.8-5.5,2.3c-5.8,1.3-24,3.4-28.6,1.6c-2.7-1.1-3.7-4.2-2.3-8.5
	c2.1-5.9,5.5-9.2,10.5-12.2c8.4-5,18.3-6.5,31.2-6.7c0.7,0,1-25.9,1-28.3c-0.3-11.3-1.5-22.5-2.3-33.8c-1.4-19.5-1.9-39.6,4.3-58.1
	c5.7-17,16.9-32,30.9-43.3c22.2-18,51-27.3,79.4-28.2c19.1-0.6,38.1,2.6,55.2,9.9c36.5,15.6,63.6,49.8,61.5,105.2
	c-1,25.6-0.7,51,0,76.6c12.6,0.2,22.4,1.7,30.7,6.7c5,3,8.4,6.3,10.5,12.2c1.4,4.3,0.4,7.4-2.3,8.5c-4.5,1.8-22.8-0.3-28.6-1.6
	c-2.5-0.5-4.6-1.3-5.5-2.3c-0.5-0.6-1-1.4-1.4-2.3c-1.5-3.9-0.2-8.4-3.2-12.1c0.4,10.7,0.8,21.4,1.2,32.2c2,51.5,4,104.2-0.4,161.1
	l0,6.2c0.1,35.4,0.2,56.4-31.3,84.8c-18.6,16.8-46.5,25.6-75.1,27.1c-30.1,1.6-61.1-4.8-82.8-18.4c-21.8-13.7-33-27.8-38.8-44.2
	c-5.7-16.1-6-34-6-55.8C36.9,346.8,38.7,297.7,40.5,250.9z M57.5,352.6c-5.8-33.6-4.7-85.2,2-118.8C71.9,280.8,69,307.2,57.5,352.6z
	 M256.6,352.6c5.8-33.6,4.7-85.2-2-118.8C242.2,280.8,245,307.2,256.6,352.6z M73.1,385.6l8.3-23.8c53,8.2,108.1,7.6,152-0.1
	l7.5,22.5C181.6,412.7,135.2,415.8,73.1,385.6L73.1,385.6z"/>
</svg>
