<?xml version="1.0" encoding="utf-8"?>
<!-- Generator: Adobe Illustrator 27.5.0, SVG Export Plug-In . SVG Version: 6.00 Build 0)  -->
<svg version="1.1"
	 id="Layer_1" shape-rendering="geometricPrecision" image-rendering="optimizeQuality" text-rendering="geometricPrecision"
	 xmlns="http://www.w3.org/2000/svg" xmlns:xlink="http://www.w3.org/1999/xlink" x="0px" y="0px" viewBox="0 0 314 512.5"
	 style="enable-background:new 0 0 314 512.5;" xml:space="preserve">
<style type="text/css">
	.st0{fill-rule:evenodd;clip-rule:evenodd;}
</style>
<path class="st0" d="M179.4,26.5c17.8,6.6,33.1,15.6,45.4,27.4c12.3,11.9,21.5,26.6,26.8,44.8c0.2,0.8-0.2,1.6-1,1.8
	c-0.5,0.1-0.9,0-1.3-0.2c-14.2-10.6-30.2-24.2-43.9-38c-11.7-11.7-21.8-23.5-27.8-33.7c-0.4-0.7-0.2-1.6,0.5-2
	C178.5,26.4,178.9,26.3,179.4,26.5z"/>
<path class="st0" d="M136,26.6c0.7,0.4,0.9,1.3,0.5,2c-6,10.2-16.1,22-27.8,33.7C95,76.1,79,89.7,64.8,100.3
	c-0.4,0.3-0.8,0.4-1.3,0.2c-0.8-0.2-1.2-1.1-1-1.8c5.3-18.2,14.4-32.9,26.8-44.8c12.3-11.8,27.7-20.8,45.4-27.4
	C135.1,26.3,135.5,26.4,136,26.6z"/>
</svg>
